<?xml version="1.0" standalone="no"?>
<!DOCTYPE svg PUBLIC "-//W3C//DTD SVG 20010904//EN"
 "http://www.w3.org/TR/2001/REC-SVG-20010904/DTD/svg10.dtd">
<svg version="1.0" xmlns="http://www.w3.org/2000/svg"
 width="94.71" height="98.52" viewBox="0 0 94.71 98.52"
 preserveAspectRatio="xMidYMid meet">
<g id="small" transform="translate(0.000000,92.000000) scale(0.100000,-0.100000)"
fill="#FFF" stroke="none">
<path d="M442 823 c-64 -31 -85 -131 -37 -178 37 -38 102 -35 145 5 39 37 32
53 -10 22 -16 -12 -38 -22 -48 -22 -58 0 -87 113 -37 146 22 15 27 15 48 1 19
-12 27 -13 46 -2 l24 12 -24 17 c-30 20 -65 20 -107 -1z"/>
<path d="M127 813 c-4 -4 70 -85 165 -180 l173 -173 -173 -173 c-95 -95 -169
-176 -165 -180 4 -4 85 70 180 165 l173 173 175 -175 c96 -96 178 -171 182
-167 4 4 -71 86 -167 182 l-175 175 175 175 c96 96 171 178 167 182 -4 4 -86
-71 -182 -167 l-175 -175 -173 173 c-95 95 -176 169 -180 165z"/>
<path d="M277 466 c-10 -26 4 -47 27 -44 15 2 21 10 21 28 0 29 -38 41 -48 16z"/>
<path d="M637 466 c-10 -26 4 -47 27 -44 15 2 21 10 21 28 0 29 -38 41 -48 16z"/>
<path d="M451 324 c-16 -11 -21 -24 -19 -49 1 -18 -4 -40 -11 -49 -8 -9 -11
-20 -7 -24 4 -4 14 2 22 13 14 19 15 18 46 -12 20 -20 29 -37 25 -47 -10 -26
-36 -30 -58 -10 -18 16 -21 16 -36 2 -27 -28 -9 -48 42 -48 58 0 85 25 85 78
0 29 -7 45 -29 66 -24 23 -29 35 -24 56 6 35 -7 44 -36 24z"/>
</g>
</svg>
